<?xml version="1.0" encoding="UTF-8"?>
<svg version="1.1" xmlns="http://www.w3.org/2000/svg" width="56" height="56">
<path d="M0 0 C18.48 0 36.96 0 56 0 C56 18.48 56 36.96 56 56 C37.52 56 19.04 56 0 56 C0 37.52 0 19.04 0 0 Z " fill="#FCFCFC" transform="translate(0,0)"/>
<path d="M0 0 C4.98051993 0.47433523 8.22454018 1.66354714 12 5 C13.05432381 8.93614223 13.39313623 12.13017715 12 16 C13.65 17.32 15.3 18.64 17 20 C16.71125 19.01 16.4225 18.02 16.125 17 C14.98624782 13.02250133 13.98680107 9.01769007 13 5 C17.75 5.75 17.75 5.75 20 8 C20.125 10.625 20.125 10.625 20 13 C20.66 13 21.32 13 22 13 C29.0807601 28.67695962 29.0807601 28.67695962 27 37 C23.37 37 19.74 37 16 37 C15.67 37.66 15.34 38.32 15 39 C13.35 39 11.7 39 10 39 C9.67 38.01 9.34 37.02 9 36 C8.67 37.65 8.34 39.3 8 41 C4.85031209 40.0636063 3.22883721 39.26574643 1.0625 36.75 C-0.3294822 33.14722255 0.47377137 31.45409637 2 28 C-0.36666667 25.23333333 -0.36666667 25.23333333 -7 25 C-7 29.95 -7 34.9 -7 40 C-6.34 40 -5.68 40 -5 40 C-5 35.38 -5 30.76 -5 26 C-3.35 26.33 -1.7 26.66 0 27 C-0.54723683 30.37462715 -1.0549 32.08235 -3 35 C-3.07905064 37.33199388 -3.08798769 39.66832622 -3 42 C-4.98 42 -6.96 42 -9 42 C-9 38.04 -9 34.08 -9 30 C-10.98 30 -12.96 30 -15 30 C-15 29.01 -15 28.02 -15 27 C-14.01 27 -13.02 27 -12 27 C-12.33 21.72 -12.66 16.44 -13 11 C-11.02 11 -9.04 11 -7 11 C-7.33 12.98 -7.66 14.96 -8 17 C-6.02 16.34 -4.04 15.68 -2 15 C-2 12.69 -2 10.38 -2 8 C-1.34 8 -0.68 8 0 8 C0 5.36 0 2.72 0 0 Z " fill="#0C0D0D" transform="translate(21,12)"/>
<path d="M0 0 C0.66 0 1.32 0 2 0 C2 2.31 2 4.62 2 7 C3.2065625 6.7215625 3.2065625 6.7215625 4.4375 6.4375 C5.7059375 6.2209375 5.7059375 6.2209375 7 6 C7.33 6.33 7.66 6.66 8 7 C8.33 6.01 8.66 5.02 9 4 C9.66 4 10.32 4 11 4 C11.33 4.66 11.66 5.32 12 6 C12.66 6 13.32 6 14 6 C14 7.65 14 9.3 14 11 C14.66 11 15.32 11 16 11 C16 9.68 16 8.36 16 7 C17.9375 6.4375 17.9375 6.4375 20 6 C21 7 21 7 21.0625 9.5625 C21.041875 10.366875 21.02125 11.17125 21 12 C20.34 12 19.68 12 19 12 C18.67 11.67 18.34 11.34 18 11 C18 12.98 18 14.96 18 17 C17.67 15.68 17.34 14.36 17 13 C16.154375 13.185625 15.30875 13.37125 14.4375 13.5625 C11 14 11 14 4 13 C4 17.95 4 22.9 4 28 C4.66 28 5.32 28 6 28 C6 23.38 6 18.76 6 14 C7.65 14.33 9.3 14.66 11 15 C10.45276317 18.37462715 9.9451 20.08235 8 23 C7.92094936 25.33199388 7.91201231 27.66832622 8 30 C6.02 30 4.04 30 2 30 C2.33 25.38 2.66 20.76 3 16 C1.68 16.33 0.36 16.66 -1 17 C-0.67 11.39 -0.34 5.78 0 0 Z " fill="#202122" transform="translate(10,24)"/>
<path d="M0 0 C17.25 0 17.25 0 21 1 C21 1.66 21 2.32 21 3 C20.01 3 19.02 3 18 3 C18 3.66 18 4.32 18 5 C19.32 5.33 20.64 5.66 22 6 C22 4.02 22 2.04 22 0 C22.66 0.33 23.32 0.66 24 1 C23.67 2.32 23.34 3.64 23 5 C23.99 4.67 24.98 4.34 26 4 C26 4.99 26 5.98 26 7 C22.37 7 18.74 7 15 7 C14.67 7.66 14.34 8.32 14 9 C12.35 9 10.7 9 9 9 C8.67 8.01 8.34 7.02 8 6 C7.67 7.65 7.34 9.3 7 11 C3.76849539 10.03928241 2.24148827 9.30588515 0.125 6.625 C-1.13461162 3.68590623 -0.90995768 2.92931581 0 0 Z " fill="#727374" transform="translate(22,42)"/>
<path d="M0 0 C4.77576339 0.4682121 8.04476345 1.24331998 12 4 C11.01 6.31 10.02 8.62 9 11 C5.28111761 10.49287967 2.26545761 9.88391785 -1 8 C-0.67 5.36 -0.34 2.72 0 0 Z " fill="#040404" transform="translate(25,3)"/>
<path d="M0 0 C0.66 0 1.32 0 2 0 C2 2.31 2 4.62 2 7 C3.2065625 6.7215625 3.2065625 6.7215625 4.4375 6.4375 C5.7059375 6.2209375 5.7059375 6.2209375 7 6 C7.33 6.33 7.66 6.66 8 7 C8.33 6.01 8.66 5.02 9 4 C9.66 4 10.32 4 11 4 C11.33 4.66 11.66 5.32 12 6 C12.66 6 13.32 6 14 6 C14 7.98 14 9.96 14 12 C13.67 10.68 13.34 9.36 13 8 C12.34 8 11.68 8 11 8 C11 9.32 11 10.64 11 12 C8.66705225 12.04241723 6.33297433 12.04092937 4 12 C3.67 11.67 3.34 11.34 3 11 C2.34 12.98 1.68 14.96 1 17 C0.34 16.67 -0.32 16.34 -1 16 C-0.67 10.72 -0.34 5.44 0 0 Z " fill="#ACADAE" transform="translate(10,24)"/>
<path d="M0 0 C7 0 7 0 9.4375 2 C10.2109375 2.99 10.2109375 2.99 11 4 C10.01 4.99 9.02 5.98 8 7 C8.66 9.31 9.32 11.62 10 14 C11.32 14.33 12.64 14.66 14 15 C14 15.66 14 16.32 14 17 C8.55263158 16.51578947 8.55263158 16.51578947 6.125 14.25 C4.76478798 11.52957597 4.63264449 10.01231516 5 7 C6 4.1875 6 4.1875 7 2 C5.35 1.67 3.7 1.34 2 1 C2 5.62 2 10.24 2 15 C1.34 15 0.68 15 0 15 C0 10.05 0 5.1 0 0 Z " fill="#C6C6C6" transform="translate(14,37)"/>
<path d="M0 0 C3.98725199 0.846191 7.49385955 1.88905449 11 4 C12.92445939 7.52628883 13.42492342 11.05584269 14 15 C14.37764816 16.56699462 14.7711476 18.13034203 15.1875 19.6875 C15.455625 20.780625 15.72375 21.87375 16 23 C13.69 21.35 11.38 19.7 9 18 C9.165 17.29875 9.33 16.5975 9.5 15.875 C10.02415338 12.86111806 10.07099683 10.05286375 10 7 C6.15299368 4.91620491 2.09945571 3.50313376 -2 2 C-1.34 1.34 -0.68 0.68 0 0 Z " fill="#E9EAEA" transform="translate(23,10)"/>
<path d="M0 0 C1.98 0 3.96 0 6 0 C6.33 0.66 6.66 1.32 7 2 C6.67 2.99 6.34 3.98 6 5 C6.66 5 7.32 5 8 5 C8 6.65 8 8.3 8 10 C6 11 6 11 4.0625 10.375 C1.38890877 8.59260585 0.31909312 6.91589005 -1 4 C-0.6875 1.6875 -0.6875 1.6875 0 0 Z " fill="#868788" transform="translate(22,42)"/>
<path d="M0 0 C3.11257569 0 5.10765685 0.17361624 8 1 C8 1.66 8 2.32 8 3 C7.01 3 6.02 3 5 3 C5 3.66 5 4.32 5 5 C6.32 5.33 7.64 5.66 9 6 C9 4.02 9 2.04 9 0 C9.66 0.33 10.32 0.66 11 1 C10.67 2.32 10.34 3.64 10 5 C10.99 4.67 11.98 4.34 13 4 C13 4.99 13 5.98 13 7 C10.03 7 7.06 7 4 7 C2.02 3.535 2.02 3.535 0 0 Z " fill="#929394" transform="translate(35,42)"/>
<path d="M0 0 C0.33 0 0.66 0 1 0 C1 4.95 1 9.9 1 15 C1.66 15 2.32 15 3 15 C3 15.66 3 16.32 3 17 C1.02 17 -0.96 17 -3 17 C-3 16.01 -3 15.02 -3 14 C-2.01 14 -1.02 14 0 14 C0 9.38 0 4.76 0 0 Z " fill="#444546" transform="translate(9,25)"/>
<path d="M0 0 C1.32 1.32 2.64 2.64 4 4 C2.8125 6 2.8125 6 1 8 C-1.6875 8.25 -1.6875 8.25 -4 8 C-3.67 7.34 -3.34 6.68 -3 6 C-2.34 6.33 -1.68 6.66 -1 7 C-1.020625 6.030625 -1.04125 5.06125 -1.0625 4.0625 C-1 1 -1 1 0 0 Z " fill="#292A2A" transform="translate(35,43)"/>
<path d="M0 0 C2.475 0.495 2.475 0.495 5 1 C4.67 2.65 4.34 4.3 4 6 C2.68 6 1.36 6 0 6 C0 4.02 0 2.04 0 0 Z " fill="#040404" transform="translate(16,38)"/>
<path d="M0 0 C0.98871094 0.35578125 1.97742188 0.7115625 2.99609375 1.078125 C3.98738281 1.42359375 4.97867187 1.7690625 6 2.125 C6.80308594 2.52203125 7.60617188 2.9190625 8.43359375 3.328125 C8.76359375 4.318125 9.09359375 5.308125 9.43359375 6.328125 C8.44359375 6.823125 8.44359375 6.823125 7.43359375 7.328125 C5.62890625 6.40234375 5.62890625 6.40234375 3.55859375 5.015625 C0.91245127 3.2599145 -1.69894662 1.697562 -4.56640625 0.328125 C-2.56640625 -0.671875 -2.56640625 -0.671875 0 0 Z " fill="#A7A8A9" transform="translate(25.56640625,10.671875)"/>
<path d="M0 0 C1.65 0 3.3 0 5 0 C5.33 1.65 5.66 3.3 6 5 C5.34 5 4.68 5 4 5 C4 6.65 4 8.3 4 10 C3.67 10 3.34 10 3 10 C3 8.35 3 6.7 3 5 C2.34 4.67 1.68 4.34 1 4 C0.375 1.9375 0.375 1.9375 0 0 Z " fill="#030303" transform="translate(22,37)"/>
<path d="M0 0 C0.99 0 1.98 0 3 0 C2.835 1.093125 2.67 2.18625 2.5 3.3125 C1.93281816 6.87525873 1.93281816 6.87525873 2 10 C0.02 10 -1.96 10 -4 10 C-3.67 9.34 -3.34 8.68 -3 8 C-2.01 8 -1.02 8 0 8 C0 5.36 0 2.72 0 0 Z " fill="#525353" transform="translate(16,44)"/>
<path d="M0 0 C2.25 -0.25 2.25 -0.25 5 0 C7.3125 2 7.3125 2 9 4 C7.68 5.32 6.36 6.64 5 8 C4.34 7.67 3.68 7.34 3 7 C3.66 5.35 4.32 3.7 5 2 C3.35 1.67 1.7 1.34 0 1 C0 0.67 0 0.34 0 0 Z " fill="#C3C4C5" transform="translate(16,37)"/>
<path d="M0 0 C0.99 0 1.98 0 3 0 C3 0.66 3 1.32 3 2 C3.66 2 4.32 2 5 2 C5 1.34 5 0.68 5 0 C5.66 0 6.32 0 7 0 C6.67 1.65 6.34 3.3 6 5 C3.5625 4.1875 3.5625 4.1875 1 3 C0.67 2.01 0.34 1.02 0 0 Z " fill="#242525" transform="translate(23,48)"/>
<path d="M0 0 C0.66 0.33 1.32 0.66 2 1 C2 2.65 2 4.3 2 6 C1.34 6 0.68 6 0 6 C-0.33 5.01 -0.66 4.02 -1 3 C-1.66 3.99 -2.32 4.98 -3 6 C-3 4.35 -3 2.7 -3 1 C-2.01 0.67 -1.02 0.34 0 0 Z " fill="#B4B6B6" transform="translate(29,30)"/>
<path d="M0 0 C0.99 1.485 0.99 1.485 2 3 C4.05925139 3.72382467 4.05925139 3.72382467 6 4 C6.33 3.34 6.66 2.68 7 2 C7 2.66 7 3.32 7 4 C7.66 4.33 8.32 4.66 9 5 C4.545 5.495 4.545 5.495 0 6 C0 4.02 0 2.04 0 0 Z " fill="#242526" transform="translate(12,32)"/>
</svg>
