<?xml version="1.0" encoding="UTF-8"?>
<svg version="1.1" xmlns="http://www.w3.org/2000/svg" width="5818" height="2400">
<path d="M0 0 C2.59884077 2.28714836 5.13639689 4.62626581 7.66015625 6.99609375 C8.18625488 7.48819336 8.71235352 7.98029297 9.25439453 8.48730469 C40.10396351 37.58193139 59.53574377 76.34642899 66.66015625 117.99609375 C66.88445313 119.18589844 67.10875 120.37570312 67.33984375 121.6015625 C74.96351355 169.48447489 62.71732479 222.51384397 34.66015625 261.99609375 C33.95503906 262.99253906 33.24992187 263.98898437 32.5234375 265.015625 C15.46219671 288.38676813 -5.20084686 307.47609637 -30.33984375 321.99609375 C-31.24500732 322.52952393 -31.24500732 322.52952393 -32.16845703 323.07373047 C-66.44082114 343.08582243 -104.35152598 348.10682915 -143.30820465 348.16475868 C-147.17889073 348.1720126 -151.04945639 348.18774307 -154.92010498 348.20610046 C-156.25622936 348.21243493 -157.59235378 348.21876058 -158.92847824 348.22507763 C-159.5968551 348.22824344 -160.26523196 348.23140925 -160.95386267 348.234671 C-169.93879075 348.27641308 -178.9236726 348.30969871 -187.90869141 348.32202148 C-194.66178772 348.33137709 -201.4145616 348.3616535 -208.16753387 348.40334129 C-210.72043228 348.41555016 -213.27337497 348.42079133 -215.82630157 348.41854286 C-246.94515206 348.39787263 -273.87713706 355.02841526 -296.6640625 377.26171875 C-320.96915947 402.09904413 -324.80766903 432.32345553 -324.7725607 465.65695412 C-324.77196454 469.42790638 -324.7888251 473.19879152 -324.80334949 476.96971035 C-324.82890468 484.26564774 -324.83940734 491.56152661 -324.84443207 498.85750389 C-324.85091741 507.30963633 -324.87649407 515.76164242 -324.90197754 524.21374512 C-324.95985692 546.49532534 -324.99204879 568.77696631 -325.02734375 591.05859375 C-325.13046875 640.86796875 -325.23359375 690.67734375 -325.33984375 741.99609375 C-455.68984375 741.99609375 -586.03984375 741.99609375 -720.33984375 741.99609375 C-720.50116915 635.75435779 -720.50116915 635.75435779 -720.53515625 591.47265625 C-720.54298816 581.33626276 -720.5510702 571.19986952 -720.55957031 561.06347656 C-720.56062531 559.79298312 -720.5616803 558.52248969 -720.56276727 557.21349645 C-720.58018117 536.68204456 -720.61172559 516.15063732 -720.64845493 495.61921194 C-720.68581472 474.56028432 -720.70806908 453.50138013 -720.71619773 432.44242072 C-720.72169581 419.43998973 -720.73908276 406.43768487 -720.77150962 393.43529269 C-720.79259628 384.52821693 -720.7990571 375.62120671 -720.79384926 366.71410778 C-720.79127835 361.56934867 -720.79531597 356.42481051 -720.81666565 351.28009033 C-720.83605016 346.57475438 -720.83716677 341.86978913 -720.82343933 337.16443655 C-720.82174132 335.45777436 -720.82688401 333.75108956 -720.83937648 332.04447225 C-720.85532256 329.73253873 -720.84684499 327.42196086 -720.83203506 325.1100502 C-720.83355395 323.82355772 -720.83507283 322.53706524 -720.83663774 321.21158814 C-720.25291565 317.43345242 -719.38816023 316.23612819 -716.33984375 313.99609375 C-711.78280432 313.36070788 -708.90757411 314.36849178 -704.90234375 316.48828125 C-703.85780029 317.02388672 -702.81325684 317.55949219 -701.73706055 318.11132812 C-700.615979 318.69205078 -699.49489746 319.27277344 -698.33984375 319.87109375 C-636.48417077 350.72500589 -563.80026941 353.75758735 -498.56640625 332.07421875 C-452.07533917 315.98640081 -408.28947969 286.3863758 -378.33984375 246.99609375 C-377.93378906 246.47176758 -377.52773437 245.94744141 -377.109375 245.40722656 C-348.60022409 208.48659194 -332.97306781 166.32498571 -324.71868896 120.77215576 C-318.73756628 87.79841046 -307.37794615 57.25723799 -286.60546875 30.62011719 C-285.48057373 29.17667551 -284.3773448 27.71640765 -283.27734375 26.25390625 C-252.34450367 -13.49962651 -205.86180295 -38.75810716 -156.33984375 -46.00390625 C-155.69112305 -46.10558105 -155.04240234 -46.20725586 -154.37402344 -46.31201172 C-99.02143887 -53.82357436 -42.17419214 -36.11913283 0 0 Z " fill="#FFFFFF" transform="translate(1520.33984375,847.00390625)"/>
<path d="M0 0 C391.98643628 0 391.98643628 0 456.0625 62.6875 C491.98626704 98.700642 506.76544634 149.71323186 507.0859375 199.5625 C506.79460194 244.50184805 493.78852935 289.60561371 464 324 C463.31679687 324.79277344 462.63359375 325.58554688 461.9296875 326.40234375 C459.66085619 328.9761255 457.34450019 331.49496875 455 334 C454.12859375 334.93714844 453.2571875 335.87429688 452.359375 336.83984375 C431.00894252 359.27973578 403.4801215 373.72074396 375 385 C379.17451882 392.73608959 383.47534219 400.38990813 387.875 408 C388.52210938 409.12083984 389.16921875 410.24167969 389.8359375 411.39648438 C395.15762553 420.59911311 400.57552855 429.74347804 406.01049805 438.87963867 C410.63005229 446.65636548 415.17962239 454.47056213 419.6875 462.3125 C424.72073288 471.06813289 429.80490804 479.79007319 434.95483398 488.47753906 C439.40912961 495.99269039 443.83436836 503.52459737 448.25 511.0625 C448.78480484 511.97539795 448.78480484 511.97539795 449.33041382 512.90673828 C450.78582037 515.39116514 452.24114349 517.87564082 453.6962738 520.36022949 C456.25293093 524.72547681 458.81148015 529.08961067 461.37109375 533.453125 C468.49499492 545.59840308 475.60845242 557.7495983 482.69873047 569.91455078 C487.22557203 577.6787076 491.76642962 585.43459376 496.3125 593.1875 C496.66644836 593.79116394 497.02039673 594.39482788 497.3850708 595.01678467 C501.04038426 601.25073146 504.69700388 607.48391087 508.35482788 613.71638489 C522.01366287 636.99017608 522.01366287 636.99017608 528.5625 648.25 C529.02188965 649.03648926 529.4812793 649.82297852 529.95458984 650.63330078 C533 655.88371774 533 655.88371774 533 657 C517.6232243 657.30410733 502.24658739 657.53312924 486.86747742 657.67355824 C479.72589416 657.74050691 472.58618235 657.8317136 465.44580078 657.98071289 C459.21973087 658.11057083 452.99501611 658.19421886 446.76762962 658.22315043 C443.47120897 658.24005958 440.17955334 658.28644264 436.88415527 658.37449074 C416.83087606 658.88892421 416.83087606 658.88892421 412.15124702 655.76640511 C408.88537504 652.34798473 407.52013034 648.44395643 406 644 C404.78910059 641.81693918 403.54213974 639.65314244 402.24609375 637.51953125 C400.97454154 635.28500298 399.70507618 633.04928614 398.4375 630.8125 C397.03234523 628.34182403 395.62548727 625.87211894 394.21875 623.40234375 C393.86582382 622.78224426 393.51289764 622.16214478 393.14927673 621.52325439 C389.60215944 615.29361915 386.02320336 609.0824978 382.4375 602.875 C381.82318115 601.81128174 381.2088623 600.74756348 380.57592773 599.65161133 C379.33707777 597.50690413 378.09806459 595.3622912 376.85888672 593.21777344 C373.73675395 587.81329355 370.61858796 582.40652588 367.5 577 C366.25001878 574.8333225 365.00001879 572.66665583 363.75 570.5 C356.25 557.5 348.75 544.5 341.25 531.5 C340.63133057 530.42766113 340.01266113 529.35532227 339.37524414 528.25048828 C338.1243552 526.08223736 336.87354148 523.91394303 335.62280273 521.74560547 C332.51201665 516.35282085 329.39995762 510.96077907 326.28515625 505.5703125 C319.46497363 493.76370516 312.6767674 481.93973 305.92263794 470.09527588 C300.77461561 461.07067742 295.56347606 452.08472562 290.31298828 443.11938477 C284.88838723 433.84233971 279.55789348 424.51243511 274.24023438 415.17382812 C273.60021484 414.05041016 272.96019531 412.92699219 272.30078125 411.76953125 C271.73528564 410.77542236 271.16979004 409.78131348 270.5871582 408.75708008 C269.52209559 406.90694131 268.42350057 405.07573672 267.29370117 403.2644043 C266 401 266 401 266 399 C211.88 399 157.76 399 102 399 C102 484.14 102 569.28 102 657 C68.34 657 34.68 657 0 657 C0 440.19 0 223.38 0 0 Z M102 92 C102 163.28 102 234.56 102 308 C147.16875 308.061875 147.16875 308.061875 193.25 308.125 C202.7262207 308.14320801 212.20244141 308.16141602 221.96582031 308.18017578 C230.52767872 308.18686839 230.52767872 308.18686839 239.08953857 308.19088745 C242.87618396 308.19273605 246.66277215 308.20017171 250.44940186 308.21115112 C255.30413302 308.22503745 260.15878298 308.22895173 265.01353216 308.22614455 C266.77981317 308.22673011 268.54609751 308.23059522 270.31236124 308.23843026 C286.2396698 308.3057063 302.44696063 307.6928221 317.9375 303.6875 C318.80882568 303.4702124 319.68015137 303.2529248 320.57788086 303.02905273 C327.61449897 301.21851817 334.36311997 298.97546031 341 296 C342.01191406 295.54882812 343.02382812 295.09765625 344.06640625 294.6328125 C366.77869563 283.90031305 383.94918628 265.33416364 392.79785156 241.88574219 C403.17956132 212.29992109 403.17711537 178.67456523 390.0390625 149.89501953 C378.09027725 125.25064994 357.12752464 108.65060931 331.61328125 99.5 C312.78986381 93.15511739 293.36773298 91.68906951 273.65039062 91.77294922 C271.7360917 91.77356346 269.82179232 91.77329224 267.90749359 91.7722187 C262.83025722 91.77177142 257.75311717 91.78327302 252.67590332 91.79743958 C247.8929823 91.80891978 243.11008345 91.80937069 238.32714844 91.81079102 C224.38475311 91.82124132 210.4423753 91.84916385 196.5 91.875 C165.315 91.91625 134.13 91.9575 102 92 Z " fill="#FFFFFF" transform="translate(1984,934)"/>
<path d="M0 0 C31.68 0 63.36 0 96 0 C96 225.06 96 450.12 96 682 C64.32 682 32.64 682 0 682 C-0.33 661.87 -0.66 641.74 -1 621 C-4.96 625.29 -8.92 629.58 -13 634 C-47.22582315 670.08592224 -96.81356857 689.66675477 -146.29760742 691.20507812 C-152.07359215 691.32744235 -157.84797907 691.33449784 -163.625 691.3125 C-165.15185928 691.30926727 -165.15185928 691.30926727 -166.70956421 691.30596924 C-181.31760116 691.25630206 -195.65227497 691.00899953 -210 688 C-211.49418457 687.69400879 -211.49418457 687.69400879 -213.01855469 687.38183594 C-266.75408974 676.08899024 -316.95512605 647.48418125 -349.76464844 602.68408203 C-351.00519748 600.99291458 -352.27047188 599.32254115 -353.5390625 597.65234375 C-377.8441379 565.1830876 -390.94975369 525.71986705 -397 486 C-397.11859375 485.24912109 -397.2371875 484.49824219 -397.359375 483.72460938 C-401.39709939 456.92661715 -400.43274416 427.63643962 -396 401 C-395.8443457 400.03239746 -395.68869141 399.06479492 -395.52832031 398.06787109 C-386.01029118 341.04518759 -355.18948456 286.19667778 -308.1015625 251.91796875 C-306.73581037 250.94329805 -305.36867723 249.97055884 -304 249 C-303.38479492 248.5560791 -302.76958984 248.1121582 -302.13574219 247.65478516 C-272.60824638 226.46644375 -237.72949048 214.33873597 -202 209 C-201.22495117 208.88140625 -200.44990234 208.7628125 -199.65136719 208.640625 C-147.65350337 201.06746408 -85.09430801 208.80397534 -41.60546875 240.0234375 C-40.74566406 240.67570312 -39.88585938 241.32796875 -39 242 C-37.96488281 242.75539063 -36.92976563 243.51078125 -35.86328125 244.2890625 C-7.29711453 265.40577093 -7.29711453 265.40577093 -1 278 C-0.67 186.26 -0.34 94.52 0 0 Z M-261.75390625 337.81640625 C-263.56668696 339.83107437 -265.28864554 341.89839943 -267 344 C-267.76054687 344.91136719 -268.52109375 345.82273437 -269.3046875 346.76171875 C-292.15373425 375.12727991 -302.4890317 410.6216969 -302.3125 446.6875 C-302.31034485 447.48125031 -302.3081897 448.27500061 -302.30596924 449.09280396 C-302.25433306 460.95166334 -301.87301073 472.43882046 -299 484 C-298.79600586 484.83450684 -298.59201172 485.66901367 -298.38183594 486.52880859 C-288.40301883 526.24798673 -266.87815577 560.61008309 -232 583 C-230.94296875 583.680625 -229.8859375 584.36125 -228.796875 585.0625 C-205.73183924 599.05455961 -180.21357632 604.42794439 -153.5 604.5 C-152.75394501 604.50467285 -152.00789001 604.5093457 -151.23922729 604.51416016 C-136.77156912 604.54925695 -122.78106695 602.57871964 -108.9375 598.25 C-108.10444336 597.99250977 -107.27138672 597.73501953 -106.41308594 597.46972656 C-68.31630462 585.35265179 -37.47946833 558.16555756 -18.92919922 522.96826172 C1.15992792 483.74486674 4.83934173 438.10607634 -8.60400391 396.11328125 C-13.80804783 380.31285843 -21.47299084 364.92214518 -32 352 C-32.63639404 351.21568604 -32.63639404 351.21568604 -33.28564453 350.41552734 C-59.61809691 318.13371805 -95.93999914 298.42794129 -137.5012207 294.1809082 C-183.67711909 290.83783632 -229.03448982 303.93104179 -261.75390625 337.81640625 Z " fill="#FFFFFF" transform="translate(3999,909)"/>
<path d="M0 0 C2.10872742 1.91070854 4.2588948 3.75143898 6.43359375 5.5859375 C46.81331636 40.94854027 67.22269767 98.82674724 71.19018555 150.95336914 C71.53581785 157.05767414 71.61234186 163.16056614 71.62109375 169.2734375 C71.62409988 170.30310638 71.62409988 170.30310638 71.62716675 171.35357666 C71.65140845 205.5878081 71.65140845 205.5878081 67.37109375 214.1484375 C-51.42890625 214.1484375 -170.22890625 214.1484375 -292.62890625 214.1484375 C-286.85922996 252.6129461 -272.31849446 285.04083428 -240.50390625 308.8359375 C-205.22826608 334.29895515 -161.46286041 340.99359588 -119.07666016 334.77392578 C-95.67489597 330.89167051 -73.55698564 321.39987829 -54.62890625 307.1484375 C-53.73042969 306.47425781 -52.83195312 305.80007813 -51.90625 305.10546875 C-35.10368774 291.91582856 -22.14381429 275.99976142 -10.62890625 258.1484375 C-4.99316496 261.20144172 0.06193799 264.7416455 5.18359375 268.5859375 C6.8757611 269.8444777 8.56848266 271.10227304 10.26171875 272.359375 C11.11443359 272.99327148 11.96714844 273.62716797 12.84570312 274.28027344 C16.68620191 277.12129207 20.55716047 279.91923932 24.43359375 282.7109375 C25.16553955 283.23824463 25.89748535 283.76555176 26.65161133 284.30883789 C28.13494438 285.37715693 29.61842444 286.44527189 31.10205078 287.51318359 C33.45308902 289.20752985 35.801146 290.90593622 38.1484375 292.60546875 C45.84853568 298.17941452 53.55016492 303.74452939 61.37109375 309.1484375 C55.03219065 327.00015919 40.27558922 342.68588641 27.37109375 356.1484375 C26.86852051 356.67824219 26.36594727 357.20804688 25.84814453 357.75390625 C-13.42399955 398.97191226 -73.11077385 425.64110466 -129.95567322 428.25544739 C-132.40052071 428.31167902 -134.84360384 428.33876251 -137.2890625 428.3515625 C-138.1882843 428.35857681 -139.0875061 428.36559113 -140.01397705 428.37281799 C-142.90650483 428.39025168 -145.79882783 428.39667204 -148.69140625 428.3984375 C-149.679664 428.39911224 -150.66792175 428.39978699 -151.68612671 428.40048218 C-166.55980759 428.38433564 -180.97381048 427.90173628 -195.62890625 425.1484375 C-196.5415625 424.98746582 -197.45421875 424.82649414 -198.39453125 424.66064453 C-240.18783237 417.14910681 -279.49134875 398.90591584 -311.62890625 371.1484375 C-312.43199219 370.45621094 -313.23507812 369.76398438 -314.0625 369.05078125 C-325.23068809 359.20490663 -335.44691389 348.83721333 -344.33789062 336.88378906 C-345.17897738 335.75322086 -346.02635139 334.62729454 -346.88085938 333.50683594 C-369.27779023 304.13526656 -382.77695537 269.24181255 -389.62890625 233.1484375 C-389.79406738 232.3037793 -389.95922852 231.45912109 -390.12939453 230.58886719 C-395.44350751 201.9794854 -395.33317067 168.64217612 -389.62890625 140.1484375 C-389.45198242 139.21177246 -389.27505859 138.27510742 -389.09277344 137.31005859 C-382.47221455 102.62358987 -369.52663106 68.81658393 -348.62890625 40.1484375 C-348.22462402 39.5901123 -347.8203418 39.03178711 -347.40380859 38.45654297 C-341.36125087 30.18185533 -334.71707515 22.54391627 -327.62890625 15.1484375 C-326.79963623 14.27034424 -326.79963623 14.27034424 -325.95361328 13.37451172 C-316.60322265 3.50999242 -306.68208671 -4.95264697 -295.62890625 -12.8515625 C-294.7177002 -13.51381836 -294.7177002 -13.51381836 -293.78808594 -14.18945312 C-276.39330258 -26.75074427 -256.90119439 -35.9908365 -236.62890625 -42.8515625 C-235.82453125 -43.12693848 -235.02015625 -43.40231445 -234.19140625 -43.68603516 C-155.57910033 -70.15068928 -62.00195197 -56.68197169 0 0 Z M-260.88232422 78.18310547 C-265.32079694 83.17747301 -269.13591104 88.45835902 -272.62890625 94.1484375 C-273.2019751 95.0763208 -273.2019751 95.0763208 -273.78662109 96.02294922 C-282.20882537 109.98709788 -288.32267301 126.00480484 -290.62890625 142.1484375 C-203.50890625 142.1484375 -116.38890625 142.1484375 -26.62890625 142.1484375 C-30.65762651 116.63320917 -37.19122558 95.91279164 -53.62890625 76.1484375 C-54.76585938 74.76591797 -54.76585938 74.76591797 -55.92578125 73.35546875 C-77.54211895 48.31301216 -109.82022281 34.17583133 -142.43359375 31.42578125 C-187.90359736 28.20146971 -230.03352393 44.77357467 -260.88232422 78.18310547 Z " fill="#FFFFFF" transform="translate(4568.62890625,1171.8515625)"/>
<path d="M0 0 C1.69657093 1.52408193 3.3868573 3.05519313 5.0703125 4.59375 C7.22432384 6.54615436 9.41949601 8.43277359 11.63671875 10.3125 C15.64555958 13.82720936 19.06180635 17.63950534 22.44921875 21.75 C23.09117187 22.51546143 23.09117187 22.51546143 23.74609375 23.29638672 C59.18794006 65.66351138 76.67085822 118.71034037 76.63671875 173.75 C76.63677917 174.42476379 76.6368396 175.09952759 76.63690186 175.79473877 C76.61831503 190.43381135 75.63294452 204.42323405 72.44921875 218.75 C-46.35078125 218.75 -165.15078125 218.75 -287.55078125 218.75 C-281.78875875 257.16348336 -267.27819356 289.55478438 -235.55078125 313.375 C-200.0893548 338.92897511 -156.5702162 345.62237547 -113.99853516 339.37548828 C-72.91081369 332.55920632 -37.6677675 308.33230639 -13.55078125 274.75 C-10.79341523 270.80812406 -8.14169523 266.80340697 -5.55078125 262.75 C0.08496004 265.80300422 5.14006299 269.343208 10.26171875 273.1875 C11.9538861 274.4460402 13.64660766 275.70383554 15.33984375 276.9609375 C16.19255859 277.59483398 17.04527344 278.22873047 17.92382812 278.88183594 C21.76432691 281.72285457 25.63528547 284.52080182 29.51171875 287.3125 C30.24366455 287.83980713 30.97561035 288.36711426 31.72973633 288.91040039 C33.21306938 289.97871943 34.69654944 291.04683439 36.18017578 292.11474609 C38.53121402 293.80909235 40.879271 295.50749872 43.2265625 297.20703125 C50.92666068 302.78097702 58.62828992 308.34609189 66.44921875 313.75 C60.11031565 331.60172169 45.35371422 347.28744891 32.44921875 360.75 C31.94664551 361.27980469 31.44407227 361.80960938 30.92626953 362.35546875 C4.34379804 390.25505242 -30.8042723 410.56003043 -67.55078125 421.75 C-68.84266357 422.14759521 -68.84266357 422.14759521 -70.16064453 422.55322266 C-90.18854252 428.61751957 -111.22620903 432.84328695 -132.2109375 432.953125 C-133.1101593 432.96013931 -134.0093811 432.96715363 -134.93585205 432.97438049 C-137.82837983 432.99181418 -140.72070283 432.99823454 -143.61328125 433 C-144.601539 433.00067474 -145.58979675 433.00134949 -146.60800171 433.00204468 C-161.48168259 432.98589814 -175.89568548 432.50329878 -190.55078125 429.75 C-191.4634375 429.58902832 -192.37609375 429.42805664 -193.31640625 429.26220703 C-240.59712654 420.76441183 -282.84030286 398.67366634 -317.55078125 365.75 C-318.05399902 365.27546387 -318.5572168 364.80092773 -319.07568359 364.31201172 C-327.0753792 356.71886223 -333.9595802 348.58176622 -340.55078125 339.75 C-340.96537598 339.20682129 -341.3799707 338.66364258 -341.80712891 338.10400391 C-372.95470787 297.25289856 -388.27172449 245.236826 -387.94189453 194.19775391 C-387.92578046 191.24985541 -387.94188755 188.30332704 -387.9609375 185.35546875 C-388.02305047 129.02600172 -368.44732688 72.48476422 -331.55078125 29.75 C-330.7825 28.85152344 -330.01421875 27.95304687 -329.22265625 27.02734375 C-327.04743468 24.55000807 -324.82080213 22.14084458 -322.55078125 19.75 C-322.04998047 19.22196777 -321.54917969 18.69393555 -321.03320312 18.14990234 C-312.7874446 9.51716755 -304.18429413 1.79972677 -294.55078125 -5.25 C-293.5040625 -6.01828125 -292.45734375 -6.7865625 -291.37890625 -7.578125 C-261.60656709 -28.75944092 -227.62266026 -42.48184322 -191.55078125 -48.25 C-190.06940674 -48.49121582 -190.06940674 -48.49121582 -188.55810547 -48.73730469 C-122.87626607 -58.96220987 -50.70474874 -44.72578143 0 0 Z M-253.921875 80.74609375 C-265.53048683 93.31832576 -274.14329017 108.35840842 -279.92578125 124.4375 C-280.26561035 125.37879761 -280.26561035 125.37879761 -280.61230469 126.33911133 C-282.88690325 133.07312022 -284.03691993 139.68531384 -285.55078125 146.75 C-198.43078125 146.75 -111.31078125 146.75 -21.55078125 146.75 C-25.71635152 120.36805498 -32.59037715 99.96989545 -49.55078125 79.75 C-50.21851562 78.93015625 -50.88625 78.1103125 -51.57421875 77.265625 C-70.93466991 54.34917261 -101.09619285 40.34814574 -130.55078125 36.75 C-131.43765625 36.63914062 -132.32453125 36.52828125 -133.23828125 36.4140625 C-178.78927113 31.51468277 -222.46269368 47.78978688 -253.921875 80.74609375 Z " fill="#FFFFFF" transform="translate(2922.55078125,1167.25)"/>
<path d="M0 0 C1.2375 1.05767578 1.2375 1.05767578 2.5 2.13671875 C32.33704415 28.10427124 50.1145627 64.5735718 57.3125 103.125 C57.45977539 103.90907227 57.60705078 104.69314453 57.75878906 105.50097656 C60.98673791 124.42265327 61.29041252 143.40171244 61.23213124 162.546646 C61.22335489 166.17616695 61.22642674 169.80568258 61.22793579 173.43521118 C61.22897584 179.69799849 61.22279247 185.96074358 61.21146011 192.22352028 C61.19508701 201.27802631 61.18998514 210.33251229 61.18748413 219.38703152 C61.18312537 234.08347199 61.1698661 248.77989004 61.15087891 263.47631836 C61.13247269 277.73803598 61.11833951 291.99974748 61.10986328 306.26147461 C61.10933783 307.1430951 61.10881239 308.0247156 61.10827102 308.93305186 C61.10566062 313.35663766 61.10313328 317.78022351 61.10064721 322.20380938 C61.07997147 358.80255951 61.04313267 395.4012681 61 432 C28.99 432 -3.02 432 -36 432 C-36.02187378 419.47949707 -36.02187378 419.47949707 -36.04418945 406.70605469 C-36.09304758 379.93481833 -36.15648433 353.16363532 -36.22898628 326.39245318 C-36.24025313 322.2272933 -36.2513918 318.06213309 -36.26245117 313.89697266 C-36.2657567 312.65326969 -36.2657567 312.65326969 -36.269129 311.38444141 C-36.3044077 297.99608632 -36.32932488 284.60773128 -36.35034702 271.21934709 C-36.37218448 257.46018261 -36.40530952 243.70107792 -36.44870156 229.94196439 C-36.47508214 221.46619824 -36.49287729 212.99050646 -36.49934604 204.51470134 C-36.50464188 198.6859717 -36.52099741 192.85733529 -36.54566566 187.0286558 C-36.55953891 183.67630136 -36.5672535 180.3242529 -36.56500816 176.97184944 C-36.55661466 158.64286443 -37.08099466 140.36960491 -42.6875 122.75 C-42.94168701 121.93265381 -43.19587402 121.11530762 -43.45776367 120.27319336 C-51.85529583 94.41703853 -68.53844719 73.50831647 -92.77734375 60.99609375 C-110.3300358 52.48990986 -129.50674348 49.76698994 -148.8125 49.75 C-149.50152405 49.74932526 -150.1905481 49.74865051 -150.90045166 49.74795532 C-185.971566 49.80238672 -219.62185637 60.77251703 -245.125 85.625 C-258.36764964 98.97427032 -266.36496207 114.76589288 -271.8125 132.625 C-272.00755127 133.25647949 -272.20260254 133.88795898 -272.40356445 134.53857422 C-276.84272601 150.08249326 -276.30633318 166.01177437 -276.31884766 182.01708984 C-276.32706709 184.74819223 -276.33824119 187.47928071 -276.34928894 190.21037292 C-276.37144799 196.06674057 -276.38652913 201.92309108 -276.39665604 207.77949142 C-276.41130787 216.24661705 -276.43686244 224.71368289 -276.46498732 233.18077321 C-276.51033783 246.92160634 -276.54700088 260.66244813 -276.578125 274.40332031 C-276.60835883 287.74285399 -276.64273113 301.08236654 -276.68261719 314.421875 C-276.68507874 315.24559465 -276.68754028 316.06931429 -276.69007643 316.91799514 C-276.70245196 321.0507942 -276.71490832 325.18359301 -276.72740483 329.31639171 C-276.83079664 363.54423604 -276.91844342 397.77209495 -277 432 C-309.01 432 -341.02 432 -374 432 C-374 278.55 -374 125.1 -374 -33 C-341.99 -33 -309.98 -33 -277 -33 C-276.67 -14.85 -276.34 3.3 -276 22 C-273.03 18.37 -270.06 14.74 -267 11 C-253.51272567 -3.73448465 -238.71309669 -14.84049357 -221 -24 C-220.38688965 -24.31952637 -219.7737793 -24.63905273 -219.14208984 -24.96826172 C-203.08472395 -33.21906509 -185.73356427 -37.94314772 -168 -41 C-167.32308105 -41.11859375 -166.64616211 -41.2371875 -165.94873047 -41.359375 C-110.42737508 -50.54233115 -42.79501166 -38.06287094 0 0 Z " fill="#FFFFFF" transform="translate(3461,1159)"/>
<path d="M0 0 C-1.00802009 8.96370547 -2.01651586 17.92735727 -3.02558708 26.89094448 C-3.49433415 31.05495656 -3.96292909 35.21898563 -4.43115234 39.38305664 C-4.88465242 43.41613527 -5.33858341 47.4491652 -5.79278946 51.48216438 C-5.96433379 53.00598555 -6.13573358 54.529823 -6.3069725 56.05367851 C-7.50419013 66.70652363 -8.7383217 77.35459589 -10 88 C-13.3531903 87.45472034 -16.60679312 86.91358809 -19.85546875 85.9140625 C-56.4466687 74.98427872 -95.67882936 75.49303526 -129.86230469 93.7578125 C-155.7960427 108.82757712 -171.37037565 133.46832377 -179 162 C-182.34166626 175.80491636 -184.14466471 189.28286261 -184.15821838 203.49075317 C-184.16315636 204.60594011 -184.16809434 205.72112705 -184.17318195 206.87010753 C-184.1884655 210.58413929 -184.19689265 214.29815388 -184.20532227 218.01220703 C-184.21490799 220.68360132 -184.22487612 223.35499164 -184.23532104 226.02638245 C-184.25700407 231.76604632 -184.27517812 237.50571255 -184.29092598 243.24539566 C-184.3136995 251.54387439 -184.34183166 259.84232826 -184.37124526 268.1407858 C-184.41882982 281.6065415 -184.46211856 295.0723074 -184.50268555 308.53808594 C-184.54208709 321.61394036 -184.58352438 334.68978574 -184.62768555 347.765625 C-184.63040982 348.57247357 -184.63313409 349.37932213 -184.63594092 350.21062066 C-184.64962116 354.25859774 -184.66334128 358.30657468 -184.67708123 362.35455155 C-184.79090238 395.90301656 -184.89694819 429.45149976 -185 463 C-217.01 463 -249.02 463 -282 463 C-282 309.55 -282 156.1 -282 -2 C-249.99 -2 -217.98 -2 -185 -2 C-184.67 17.14 -184.34 36.28 -184 56 C-181.69 52.37 -179.38 48.74 -177 45 C-155.97532993 14.73018639 -126.99529865 -3.74874094 -90.98999023 -10.40844727 C-62.2589289 -15.19069674 -26.37961544 -13.40864826 0 0 Z " fill="#FFFFFF" transform="translate(5014,1128)"/>
</svg>
